<svg xmlns="http://www.w3.org/2000/svg" width="38" height="32" viewBox="0 0 38 32" fill="none"><path d="M37 1.01645C35.433 2.12178 33.698 2.96718 31.8618 3.52009C30.8763 2.38693 29.5665 1.58377 28.1097 1.21924C26.6528 0.854717 25.1192 0.946411 23.7161 1.48192C22.3131 2.01744 21.1084 2.97093 20.2649 4.21345C19.4214 5.45596 18.9799 6.92755 19 8.42918V10.0655C16.1243 10.1401 13.2748 9.50233 10.7053 8.209C8.13576 6.91568 5.92597 5.00695 4.27273 2.65282C4.27273 2.65282 -2.27273 17.3801 12.4545 23.9255C9.0845 26.2131 5.06989 27.3602 1 27.1983C15.7273 35.3801 33.7273 27.1983 33.7273 8.38009C33.7258 7.92429 33.6819 7.46961 33.5964 7.02191C35.2664 5.3749 36.445 3.29544 37 1.01645V1.01645Z" stroke="#CCCCCC" stroke-width="2" stroke-linecap="round" stroke-linejoin="round"></path></svg>