<svg xmlns="http://www.w3.org/2000/svg" width="34" height="32" viewBox="0 0 34 32" fill="none"><path d="M32.4428 19.1641L16.9701 30.4091L1.49735 19.1641C1.28992 19.0116 1.13606 18.7973 1.05777 18.552C0.979488 18.3067 0.980793 18.043 1.0615 17.7985L2.83397 12.3067L6.37889 1.39591C6.41328 1.30701 6.46801 1.2274 6.53871 1.16346C6.65383 1.0583 6.80411 1 6.96003 1C7.11595 1 7.26623 1.0583 7.38135 1.16346C7.456 1.23561 7.51101 1.32562 7.54117 1.42497L11.0861 12.3067H22.8541L26.399 1.39591C26.4334 1.30701 26.4881 1.2274 26.5588 1.16346C26.674 1.0583 26.8242 1 26.9802 1C27.1361 1 27.2864 1.0583 27.4015 1.16346C27.4761 1.23561 27.5311 1.32562 27.5613 1.42497L31.1062 12.3358L32.9513 17.7985C33.0247 18.0505 33.0149 18.3195 32.9233 18.5655C32.8317 18.8116 32.6632 19.0215 32.4428 19.1641V19.1641Z" stroke="#CCCCCC" stroke-width="2" stroke-linecap="round" stroke-linejoin="round"></path></svg>