<svg xmlns="http://www.w3.org/2000/svg" width="44" height="32" viewBox="0 0 44 32" fill="none"><path d="M42.1208 5.61976C41.894 4.71377 41.4322 3.88367 40.7819 3.2133C40.1317 2.54292 39.316 2.05603 38.4173 1.80178C35.1339 1 22 1 22 1C22 1 8.86614 1 5.58267 1.87814C4.68401 2.13238 3.86835 2.61928 3.21809 3.28966C2.56783 3.96003 2.10599 4.79013 1.87923 5.69612C1.2783 9.02837 0.984361 12.4087 1.00109 15.7947C0.979671 19.2061 1.27363 22.6123 1.87923 25.9696C2.12923 26.8475 2.60141 27.646 3.25016 28.288C3.89891 28.9301 4.70228 29.394 5.58267 29.6349C8.86614 30.513 22 30.513 22 30.513C22 30.513 35.1339 30.513 38.4173 29.6349C39.316 29.3806 40.1317 28.8937 40.7819 28.2234C41.4322 27.553 41.894 26.7229 42.1208 25.8169C42.7171 22.5097 43.011 19.1551 42.9989 15.7947C43.0203 12.3832 42.7264 8.9771 42.1208 5.61976V5.61976Z" stroke="#CCCCCC" stroke-width="2" stroke-linecap="round" stroke-linejoin="round"></path><path d="M17.7047 22.038L28.6814 15.7956L17.7047 9.55322V22.038Z" stroke="#CCCCCC" stroke-width="2" stroke-linecap="round" stroke-linejoin="round"></path></svg>