<svg xmlns="http://www.w3.org/2000/svg" width="17" height="20" viewBox="0 0 17 20" fill="none"><path d="M15.7273 8.36364C15.7273 14.0909 8.36364 19 8.36364 19C8.36364 19 1 14.0909 1 8.36364C1 6.41068 1.77581 4.53771 3.15676 3.15676C4.53771 1.77581 6.41068 1 8.36364 1C10.3166 1 12.1896 1.77581 13.5705 3.15676C14.9515 4.53771 15.7273 6.41068 15.7273 8.36364Z" stroke="#CCCCCC" stroke-width="2" stroke-linecap="round" stroke-linejoin="round"></path><path d="M8.36363 10.8183C9.71924 10.8183 10.8182 9.71933 10.8182 8.36373C10.8182 7.00812 9.71924 5.90918 8.36363 5.90918C7.00803 5.90918 5.90909 7.00812 5.90909 8.36373C5.90909 9.71933 7.00803 10.8183 8.36363 10.8183Z" stroke="#CCCCCC" stroke-width="2" stroke-linecap="round" stroke-linejoin="round"></path></svg>