<svg xmlns="http://www.w3.org/2000/svg" width="66" height="73" viewBox="0 0 66 73" fill="none"><path d="M40.1015 9.73209C38.783 7.69211 37.2207 3.5226 41.5195 3.16436C46.8931 2.71656 47.117 8.98575 42.1912 9.73209M15.8457 1.6717C13.2584 3.53753 10.7557 8.65738 21.4432 14.2101C23.0851 9.80673 24.533 1 17.1891 1M62.8647 61.5276C60.2525 62.4481 54.8341 61.6619 54.0579 51.1536C58.5608 51.1785 66.9695 53.0045 64.5812 60.1096M35.8474 64.7368C37.4893 64.3139 40.6389 64.3189 40.1015 67.7222C39.4298 71.9763 35.8474 70.7821 34.8025 69.8119C33.9667 69.0357 34.4543 66.951 34.8025 66.0056M6.74042 61.5276C4.62581 60.4081 0.799612 59.811 2.41169 66.3788C2.85949 67.8217 4.60591 70.1104 8.00919 67.7222C8.68089 67.3241 9.75561 65.8862 8.68089 63.3188M19.7266 38.0181C19.7017 36.3513 18.2937 32.5699 12.8604 30.7787C6.06872 28.5397 -2.51411 24.4349 2.93412 16.2252C5.14824 13.7872 10.487 10.374 14.1291 16.2252C18.6818 23.5393 18.4579 26.1514 21.4432 27.4948C24.4285 28.8382 29.5782 25.629 28.6826 23.5393C27.787 21.4495 24.727 13.4638 28.6826 12.7174C32.6382 11.9711 35.8474 12.0457 34.8025 17.7925C33.7577 23.5393 33.0113 26.3753 37.2654 27.4948C40.6687 28.3904 45.1019 20.8525 46.8931 16.9715C48.8336 12.394 54.0281 4.5376 59.2823 9.73209C65.85 16.2252 58.5359 20.1061 55.0282 21.8227C51.5204 23.5393 39.2805 31.1518 41.5195 34.585C43.7585 38.0181 54.1326 34.3611 55.8491 35.8538C57.3916 36.6001 60.0137 38.9286 58.1628 42.2722C55.8491 46.4517 52.1921 46.0785 47.938 43.3171C43.6839 40.5557 39.7283 41.0035 40.1015 45.4068C40.4747 49.8102 45.8483 50.0341 46.8931 52.1984C47.938 54.3628 51.5204 59.3632 43.46 61.5276C35.3996 63.692 38.4596 50.6311 34.8025 48.7653C31.1455 46.8995 29.3543 50.1087 28.6826 56.4525C28.0109 62.7964 26.5929 71.3046 21.4432 71.0807C16.2935 70.8568 11.8901 68.0207 17.1891 58.393C22.488 48.7653 26.5929 48.5414 22.2641 45.4068C18.8012 42.8991 13.5569 48.1931 11.3677 51.1536C8.92967 54.6116 3.51626 59.4528 1.36682 51.1536C-1.31998 40.7796 11.5916 45.2576 12.8604 44.2873C14.1291 43.3171 18.01 43.9888 19.7266 38.0181Z" stroke="#F3255F" stroke-opacity="0.7" stroke-width="2" stroke-linecap="round" stroke-linejoin="round"></path></svg>