<svg xmlns="http://www.w3.org/2000/svg" width="66" height="74" viewBox="0 0 66 74" fill="none"><path d="M31.5588 33.9314L15.6601 36.7006C5.29137 32.1501 8.97802 25.8233 12.1174 23.2287L31.5588 7.36175V1C50.0151 2.61663 56.6453 13.9979 57.6534 19.4865C57.711 27.9189 57.7917 45.9813 57.6534 50.7713C57.5152 55.5613 54.0244 57.5073 52.2962 57.8815M31.5588 33.9314C34.7558 33.7817 41.2708 32.0603 41.7547 26.3721M31.5588 33.9314C32.7685 34.2557 34.1164 35.4582 29.8307 37.6736C24.4735 40.4428 15.2281 44.7838 13.6728 56.8337V57.8815M13.6728 57.8815C11.455 58.3056 7.31327 60.2466 8.48839 64.6175V65.5904M13.6728 57.8815H52.2962M8.48839 65.5904C5.57939 65.6902 0.0378837 67.3119 1.14388 73H64.9979C65.0555 71.1538 63.9438 67.0873 59.0359 65.5904M8.48839 65.5904H59.0359M59.0359 65.5904C59.1799 63.6694 58.0336 59.4383 52.2962 57.8815M37.78 6.16424C42.1003 7.16216 51.052 11.2237 52.2962 19.4865V50.7713" stroke="#F3255F" stroke-opacity="0.7" stroke-width="2" stroke-linecap="round" stroke-linejoin="round"></path></svg>