<svg xmlns="http://www.w3.org/2000/svg" width="82" height="73" viewBox="0 0 82 73" fill="none"><path d="M1 38.6096V60.9203L22.867 71.0439M1 38.6096L22.7795 50.0837L22.867 50.0087M1 38.6096L18.2112 27.1355M40.6282 34.7849L21.0797 25.2231L18.2112 27.1355M40.6282 34.7849L41.7968 30.8539M40.6282 34.7849L22.867 50.0087M41.7968 30.8539L59.5392 47.9588M41.7968 30.8539L43.3904 30.2999M81 37.5471L64.1076 23.0983L59.5392 24.6863M81 37.5471L75.6879 58.6892L55.3958 68.3572L54.3333 67.501M81 37.5471L59.5392 47.9588M41.1594 56.8831L23.9482 71.5445L22.867 71.0439M41.1594 56.8831L54.3333 67.501M41.1594 56.8831V34.7849M59.5392 47.9588L54.3333 67.501M22.867 50.0087V71.0439M18.2112 27.1355L15.6614 19.8048M15.6614 19.8048L29.2603 1L51.4648 3.44356M15.6614 19.8048L40.6282 23.0983M51.4648 3.44356L59.5392 24.6863M51.4648 3.44356L40.6282 23.0983M59.5392 24.6863L43.3904 30.2999M40.6282 23.0983L43.3904 30.2999" stroke="#F3255F" stroke-opacity="0.7" stroke-width="2" stroke-linecap="round" stroke-linejoin="round"></path></svg>