<svg xmlns="http://www.w3.org/2000/svg" width="86" height="75" viewBox="0 0 86 75" fill="none"><path d="M39.0139 55.4444C33.7639 55.9954 21.6111 53.8889 17.5278 44.9444C13.0055 35.0385 15.3889 22 27.9306 16.4583C37.9639 12.025 49.5139 18.2083 52.5278 23.3611C55.3472 27.5417 59.4111 39.1111 51.5556 48.0556C49.9676 50.1296 44.5361 54.2 39.0139 55.4444ZM39.0139 55.4444L56.6111 54.8611M26.9583 64.9722H67.9861V73.2361L85 60.2083L67.9861 47.0833V54.8611H56.6111M26.9583 64.9722C23.6269 63.5002 18.0474 60.044 13.4827 54.8611M26.9583 64.9722H2.45833V54.8611H13.4827M56.6111 54.8611C60.6944 53.2278 63.7083 45.2037 64.6806 41.6389L69.7361 40.0833V30.2639L64.6806 28.9028C64.0972 24.1389 62.1528 21.6111 60.2083 18.8889L63.0278 14.6111L56.3194 7.90278L51.1667 10.625C48.5417 7.41667 44.2639 6.37963 41.4444 6.25L40.375 1H30.1667L29.2917 6.25C25.7139 6.56111 20.6389 9.06944 19.0833 11.0139L14.0278 7.90278L8 14.125L10.9167 19.9583C8.11667 21.7472 6.89815 26.6667 6.63889 28.9028L1 30.2639V40.0833L6.63889 42.125C7.79672 47.1005 10.4098 51.3721 13.4827 54.8611" stroke="#F3255F" stroke-opacity="0.7" stroke-width="2" stroke-linecap="round" stroke-linejoin="round"></path></svg>