<svg xmlns="http://www.w3.org/2000/svg" width="80" height="67" viewBox="0 0 80 67" fill="none"><path d="M75.7843 22.9051C75.7843 20.2117 75.7843 13.4603 75.7843 8.00179C75.7843 2.54322 71.5946 1.05888 69.4997 0.999023C50.6462 0.999023 11.6462 0.999023 6.47491 0.999023C1.30364 0.999023 0.729058 5.66753 1.08817 8.00179C1.08817 17.9373 1.08817 39.4963 1.08817 46.2476M75.7843 22.9051C76.9215 23.2044 79.16 24.6648 79.0163 28.1123C78.8727 31.5598 78.9565 50.1381 79.0163 58.9963C78.7769 60.1335 77.6158 62.5874 74.8865 63.3057H60.1627C59.0854 63.5451 56.6434 63.0184 55.4942 58.9963V54.1482M75.7843 22.9051C71.1158 22.9051 61.1682 22.9051 58.7263 22.9051C56.2843 22.9051 55.5541 25.4189 55.4942 26.6758V46.2476M55.4942 54.1482V46.2476M55.4942 54.1482H42.9252M1.08817 46.2476C1.08817 52.999 4.67933 54.3278 6.47491 54.1482H33.9473M1.08817 46.2476H55.4942M33.9473 54.1482L29.4583 65.999M33.9473 54.1482H42.9252M42.9252 54.1482L47.4141 65.999M25.3285 65.999H51.0053" stroke="#717171" stroke-width="1.5" stroke-linecap="round"></path></svg>