<svg xmlns="http://www.w3.org/2000/svg" width="51" height="50" viewBox="0 0 51 50" fill="none"><path d="M22.9186 8.33331H8.33529C7.23022 8.33331 6.17041 8.7723 5.38901 9.5537C4.60761 10.3351 4.16862 11.3949 4.16862 12.5V41.6666C4.16862 42.7717 4.60761 43.8315 5.38901 44.6129C6.17041 45.3943 7.23022 45.8333 8.33529 45.8333H37.502C38.607 45.8333 39.6668 45.3943 40.4482 44.6129C41.2296 43.8315 41.6686 42.7717 41.6686 41.6666V27.0833" stroke="white" stroke-width="1.6" stroke-linecap="round" stroke-linejoin="round"></path><path d="M38.5436 5.20836C39.3724 4.37956 40.4965 3.91394 41.6686 3.91394C42.8407 3.91394 43.9648 4.37956 44.7936 5.20836C45.6224 6.03716 46.088 7.16126 46.088 8.33336C46.088 9.50546 45.6224 10.6296 44.7936 11.4584L25.0019 31.25L16.6686 33.3334L18.7519 25L38.5436 5.20836Z" stroke="white" stroke-width="1.6" stroke-linecap="round" stroke-linejoin="round"></path></svg>