<svg xmlns="http://www.w3.org/2000/svg" width="46" height="44" viewBox="0 0 46 44" fill="none"><path d="M23.0024 25V43" stroke="white" stroke-width="1.6" stroke-linecap="round" stroke-linejoin="round"></path><path d="M39.7824 31.78C41.733 30.7165 43.274 29.0337 44.1621 26.9972C45.0502 24.9607 45.2348 22.6864 44.6868 20.5333C44.1388 18.3803 42.8893 16.471 41.1357 15.1069C39.3821 13.7427 37.2241 13.0014 35.0024 13H32.4824C31.877 10.6585 30.7487 8.48464 29.1823 6.64195C27.6158 4.79927 25.6521 3.33567 23.4386 2.36118C21.2251 1.3867 18.8195 0.926686 16.4026 1.01573C13.9857 1.10478 11.6205 1.74057 9.48472 2.8753C7.34893 4.01003 5.49818 5.61417 4.07161 7.56713C2.64503 9.52009 1.67974 11.771 1.24832 14.1508C0.816901 16.5305 0.930572 18.977 1.58079 21.3065C2.231 23.6359 3.40085 25.7877 5.00236 27.6" stroke="white" stroke-width="1.6" stroke-linecap="round" stroke-linejoin="round"></path><path d="M31.0024 35L23.0024 43L15.0024 35" stroke="white" stroke-width="1.6" stroke-linecap="round" stroke-linejoin="round"></path></svg>