<svg xmlns="http://www.w3.org/2000/svg" width="67" height="67" viewBox="0 0 67 67" fill="none"><path d="M12.4054 44.4933C7.94054 43.6665 -0.542613 39.6316 1.24331 30.1066C3.02924 20.5817 11.4131 19.0273 15.3818 19.4407C15.7125 14.0664 20.0947 2.87125 34.9774 1.08532C40.269 0.506548 51.9437 2.5736 56.3093 15.472C59.6993 16.5468 66.3799 20.7306 65.9831 28.8665C65.487 39.0363 56.3093 43.9972 53.3328 43.2531M1.24331 62.8487H24.3114M41.9227 62.8487H65.9831M33.4891 59.499V54.4152M33.4891 54.4152H21.831C20.3427 53.8364 17.6142 52.1828 17.6142 49.4543C17.6142 45.9816 20.0947 43.9972 21.0868 43.9972M33.4891 54.4152C36.631 54.4978 43.1961 54.4152 44.4031 54.4152C45.8914 54.4152 48.8325 53.423 49.116 49.4543C49.3286 46.4777 46.8009 44.9067 45.3953 43.9972M21.0868 43.9972C19.7639 43.2531 17.6142 41.2687 17.6142 38.5402C17.6142 35.2777 19.3505 34.0754 20.5907 33.5793M21.0868 43.9972H45.3953M20.5907 33.5793C19.5986 32.7525 17.6142 30.6028 17.6142 28.6184C17.6142 26.138 18.8544 23.9056 21.3349 23.4095L45.3953 23.1614C46.8009 23.6575 49.5129 25.4434 49.116 28.6184C48.7191 31.7934 46.4702 33.2486 45.3953 33.5793M20.5907 33.5793H45.3953M45.3953 33.5793C46.6355 34.1581 49.116 35.9302 49.116 38.5402C49.116 42.0129 46.6355 43.5012 45.3953 43.9972" stroke="#717171" stroke-width="1.5" stroke-linecap="round" stroke-linejoin="round"></path><path d="M23.0713 27.8743H34.2333M23.0713 38.2922H34.4814M23.0713 48.9581H34.4814" stroke="#717171" stroke-width="1.5" stroke-linecap="round"></path><circle cx="38.7441" cy="48.5791" r="0.744137" fill="#717171"></circle><circle cx="38.7441" cy="38.1611" r="0.744137" fill="#717171"></circle><circle cx="38.7441" cy="27.7432" r="0.744137" fill="#717171"></circle><circle cx="43.209" cy="48.5791" r="0.744137" fill="#717171"></circle><circle cx="33.7373" cy="63.0967" r="2.72264" stroke="#717171" stroke-width="1.5"></circle><circle cx="43.209" cy="38.1611" r="0.744137" fill="#717171"></circle><circle cx="43.209" cy="27.7432" r="0.744137" fill="#717171"></circle></svg>