<svg xmlns="http://www.w3.org/2000/svg" width="46" height="46" viewBox="0 0 46 46" fill="none"><path d="M23.0029 29C26.3166 29 29.0029 26.3137 29.0029 23C29.0029 19.6863 26.3166 17 23.0029 17C19.6892 17 17.0029 19.6863 17.0029 23C17.0029 26.3137 19.6892 29 23.0029 29Z" stroke="white" stroke-width="1.6" stroke-linecap="round" stroke-linejoin="round"></path><path d="M37.8029 29C37.5367 29.6032 37.4573 30.2724 37.5749 30.9212C37.6926 31.57 38.0019 32.1686 38.4629 32.64L38.5829 32.76C38.9548 33.1315 39.2499 33.5726 39.4512 34.0582C39.6525 34.5438 39.7561 35.0643 39.7561 35.59C39.7561 36.1157 39.6525 36.6362 39.4512 37.1218C39.2499 37.6074 38.9548 38.0485 38.5829 38.42C38.2114 38.7919 37.7703 39.0869 37.2847 39.2882C36.7991 39.4895 36.2786 39.5931 35.7529 39.5931C35.2273 39.5931 34.7068 39.4895 34.2212 39.2882C33.7356 39.0869 33.2944 38.7919 32.9229 38.42L32.8029 38.3C32.3316 37.8389 31.7329 37.5296 31.0841 37.412C30.4353 37.2944 29.7662 37.3738 29.1629 37.64C28.5714 37.8935 28.0669 38.3145 27.7115 38.8511C27.3562 39.3877 27.1655 40.0164 27.1629 40.66V41C27.1629 42.0609 26.7415 43.0783 25.9914 43.8284C25.2412 44.5786 24.2238 45 23.1629 45C22.1021 45 21.0846 44.5786 20.3345 43.8284C19.5844 43.0783 19.1629 42.0609 19.1629 41V40.82C19.1474 40.158 18.9332 39.516 18.548 38.9774C18.1627 38.4388 17.6244 38.0286 17.0029 37.8C16.3997 37.5338 15.7305 37.4544 15.0818 37.572C14.433 37.6896 13.8343 37.9989 13.3629 38.46L13.2429 38.58C12.8714 38.9519 12.4303 39.2469 11.9447 39.4482C11.4591 39.6495 10.9386 39.7531 10.4129 39.7531C9.88727 39.7531 9.36676 39.6495 8.88117 39.4482C8.39558 39.2469 7.95442 38.9519 7.58293 38.58C7.21102 38.2085 6.91599 37.7674 6.71469 37.2818C6.51339 36.7962 6.40978 36.2757 6.40978 35.75C6.40978 35.2243 6.51339 34.7038 6.71469 34.2182C6.91599 33.7326 7.21102 33.2915 7.58293 32.92L7.70293 32.8C8.164 32.3286 8.4733 31.73 8.59094 31.0812C8.70858 30.4324 8.62916 29.7632 8.36293 29.16C8.1094 28.5685 7.68844 28.064 7.15186 27.7086C6.61528 27.3533 5.9865 27.1626 5.34293 27.16H5.00293C3.94206 27.16 2.92465 26.7386 2.1745 25.9884C1.42436 25.2383 1.00293 24.2209 1.00293 23.16C1.00293 22.0991 1.42436 21.0817 2.1745 20.3316C2.92465 19.5814 3.94206 19.16 5.00293 19.16H5.18293C5.84492 19.1445 6.48694 18.9302 7.02553 18.545C7.56412 18.1598 7.97436 17.6215 8.20293 17C8.46916 16.3968 8.54858 15.7276 8.43094 15.0788C8.3133 14.43 8.004 13.8314 7.54293 13.36L7.42293 13.24C7.05102 12.8685 6.75599 12.4274 6.55469 11.9418C6.35339 11.4562 6.24978 10.9357 6.24978 10.41C6.24978 9.88434 6.35339 9.36383 6.55469 8.87824C6.75599 8.39265 7.05102 7.95149 7.42293 7.58C7.79442 7.20809 8.23558 6.91306 8.72117 6.71176C9.20676 6.51046 9.72727 6.40685 10.2529 6.40685C10.7786 6.40685 11.2991 6.51046 11.7847 6.71176C12.2703 6.91306 12.7114 7.20809 13.0829 7.58L13.2029 7.7C13.6743 8.16107 14.273 8.47037 14.9218 8.58801C15.5705 8.70565 16.2397 8.62623 16.8429 8.36H17.0029C17.5945 8.10647 18.099 7.68551 18.4543 7.14893C18.8097 6.61235 19.0004 5.98357 19.0029 5.34V5C19.0029 3.93913 19.4244 2.92172 20.1745 2.17157C20.9246 1.42143 21.9421 1 23.0029 1C24.0638 1 25.0812 1.42143 25.8314 2.17157C26.5815 2.92172 27.0029 3.93913 27.0029 5V5.18C27.0055 5.82357 27.1962 6.45235 27.5515 6.98893C27.9069 7.52551 28.4114 7.94647 29.0029 8.2C29.6062 8.46623 30.2753 8.54565 30.9241 8.42801C31.5729 8.31037 32.1716 8.00107 32.6429 7.54L32.7629 7.42C33.1344 7.04809 33.5756 6.75306 34.0612 6.55176C34.5468 6.35046 35.0673 6.24685 35.5929 6.24685C36.1186 6.24685 36.6391 6.35046 37.1247 6.55176C37.6103 6.75306 38.0514 7.04809 38.4229 7.42C38.7948 7.79149 39.0899 8.23265 39.2912 8.71824C39.4925 9.20383 39.5961 9.72434 39.5961 10.25C39.5961 10.7757 39.4925 11.2962 39.2912 11.7818C39.0899 12.2674 38.7948 12.7085 38.4229 13.08L38.3029 13.2C37.8419 13.6714 37.5326 14.27 37.4149 14.9188C37.2973 15.5676 37.3767 16.2368 37.6429 16.84V17C37.8965 17.5915 38.3174 18.096 38.854 18.4514C39.3906 18.8067 40.0194 18.9974 40.6629 19H41.0029C42.0638 19 43.0812 19.4214 43.8314 20.1716C44.5815 20.9217 45.0029 21.9391 45.0029 23C45.0029 24.0609 44.5815 25.0783 43.8314 25.8284C43.0812 26.5786 42.0638 27 41.0029 27H40.8229C40.1794 27.0026 39.5506 27.1933 39.014 27.5486C38.4774 27.904 38.0565 28.4085 37.8029 29V29Z" stroke="white" stroke-width="1.6" stroke-linecap="round" stroke-linejoin="round"></path></svg>