<svg xmlns="http://www.w3.org/2000/svg" width="42" height="42" viewBox="0 0 42 42" fill="none"><path d="M1.5 34V21C1.5 15.8283 3.55446 10.8684 7.21142 7.21142C10.8684 3.55446 15.8283 1.5 21 1.5C26.1717 1.5 31.1316 3.55446 34.7886 7.21142C38.4455 10.8684 40.5 15.8283 40.5 21V34" stroke="white" stroke-width="1.73333" stroke-linecap="round" stroke-linejoin="round"></path><path d="M40.5 36.1668C40.5 37.3161 40.0435 38.4183 39.2308 39.231C38.4181 40.0436 37.3159 40.5002 36.1667 40.5002H34C32.8507 40.5002 31.7485 40.0436 30.9359 39.231C30.1232 38.4183 29.6667 37.3161 29.6667 36.1668V29.6668C29.6667 28.5176 30.1232 27.4154 30.9359 26.6027C31.7485 25.79 32.8507 25.3335 34 25.3335H40.5V36.1668ZM1.5 36.1668C1.5 37.3161 1.95655 38.4183 2.7692 39.231C3.58186 40.0436 4.68406 40.5002 5.83333 40.5002H8C9.14927 40.5002 10.2515 40.0436 11.0641 39.231C11.8768 38.4183 12.3333 37.3161 12.3333 36.1668V29.6668C12.3333 28.5176 11.8768 27.4154 11.0641 26.6027C10.2515 25.79 9.14927 25.3335 8 25.3335H1.5V36.1668Z" stroke="white" stroke-width="1.73333" stroke-linecap="round" stroke-linejoin="round"></path></svg>