<svg xmlns="http://www.w3.org/2000/svg" width="44" height="44" viewBox="0 0 44 44" fill="none"><path d="M38.6662 15.75H19.9162C17.615 15.75 15.7495 17.6155 15.7495 19.9167V38.6667C15.7495 40.9679 17.615 42.8333 19.9162 42.8333H38.6662C40.9674 42.8333 42.8328 40.9679 42.8328 38.6667V19.9167C42.8328 17.6155 40.9674 15.75 38.6662 15.75Z" stroke="white" stroke-width="1.6" stroke-linecap="round" stroke-linejoin="round"></path><path d="M7.41602 28.2498H5.33268C4.22761 28.2498 3.16781 27.8108 2.3864 27.0294C1.605 26.248 1.16602 25.1882 1.16602 24.0832V5.33317C1.16602 4.2281 1.605 3.16829 2.3864 2.38689C3.16781 1.60549 4.22761 1.1665 5.33268 1.1665H24.0827C25.1878 1.1665 26.2476 1.60549 27.029 2.38689C27.8104 3.16829 28.2493 4.2281 28.2493 5.33317V7.4165" stroke="white" stroke-width="1.6" stroke-linecap="round" stroke-linejoin="round"></path></svg>